<?xml version="1.0" encoding="UTF-8"?>
<svg version="1.1" xmlns="http://www.w3.org/2000/svg" width="500" height="500">
<path d="M0 0 C0.95487305 -0.00701431 1.90974609 -0.01402863 2.89355469 -0.02125549 C5.9746576 -0.03872203 9.05556807 -0.04511204 12.13671875 -0.046875 C13.19055756 -0.04754974 14.24439636 -0.04822449 15.33016968 -0.04891968 C32.01073477 -0.03195967 48.32298667 0.5524688 64.82421875 3.203125 C66.49798584 3.46851074 66.49798584 3.46851074 68.20556641 3.73925781 C95.28054994 8.1757699 123.92843889 15.50049485 141.69921875 38.078125 C158.46972404 61.75413247 159.03383745 92.80979365 154.4453125 120.48876953 C151.32274465 136.00687069 142.36060439 148.12140748 129.7890625 157.45703125 C122.77936355 162.03461656 115.50997516 165.13898982 107.6484375 167.87890625 C107.02622314 168.10376709 106.40400879 168.32862793 105.76293945 168.56030273 C103.82421875 169.203125 103.82421875 169.203125 101.67260742 169.69165039 C99.40802319 170.29148715 97.75288314 170.86508816 95.82421875 172.203125 C94.12525379 175.31872636 93.48186535 178.56055319 92.76171875 182.015625 C89.87019574 193.78012525 86.09284775 204.08943171 77.82421875 213.203125 C72.72421875 216.203125 72.72421875 216.203125 69.82421875 216.203125 C68.40930979 211.63188065 67.4140997 207.09223483 66.51171875 202.390625 C64.78636579 194.36175479 62.95184108 186.84494295 55.76171875 182.140625 C45.67156982 176.52610649 32.1768558 179.04218231 21.26171875 180.765625 C17.74475737 181.21323827 14.36551134 181.27539628 10.82421875 181.203125 C10.82421875 184.173125 10.82421875 187.143125 10.82421875 190.203125 C12.08234375 189.873125 13.34046875 189.543125 14.63671875 189.203125 C27.07991102 186.5090382 41.03081119 188.08427702 51.9375 194.8984375 C63.07125602 202.59755657 67.85838011 212.5191358 70.51171875 225.58984375 C73.9150364 246.69513999 71.95772782 269.07102718 59.82421875 287.203125 C51.22871459 298.27980561 39.05716271 303.5268207 25.53125 305.76953125 C5.67697863 308.0917906 -11.94529464 304.04911735 -29.17578125 294.203125 C-29.17578125 257.903125 -29.17578125 221.603125 -29.17578125 184.203125 C-35.44578125 184.203125 -41.71578125 184.203125 -48.17578125 184.203125 C-71.85205383 180.79517667 -92.95286067 172.70693147 -108.046875 153.265625 C-122.99753107 131.75862617 -127.46247473 105.72736457 -123.4921875 79.91796875 C-119.5128993 59.02944324 -108.64975513 39.59687606 -91.36474609 26.86962891 C-87.13247015 24.00565736 -82.70724281 21.55670222 -78.17578125 19.203125 C-76.43748047 18.28273438 -76.43748047 18.28273438 -74.6640625 17.34375 C-51.74759661 5.94854364 -25.55235023 0.12581898 0 0 Z M10.82421875 226.203125 C10.82421875 240.393125 10.82421875 254.583125 10.82421875 269.203125 C18.57973807 270.52831981 18.57973807 270.52831981 24.3515625 267.57421875 C28.79997878 263.4325898 29.69143373 256.76000865 29.9921875 250.96875 C30.35840678 238.59122882 30.35840678 238.59122882 25.32421875 227.703125 C22.52447092 224.90337717 21.83567069 224.26908926 17.94921875 224.015625 C14.54688605 224.01442344 14.54688605 224.01442344 10.82421875 226.203125 Z " fill="#65F48C" transform="translate(288.17578125,70.796875)"/>
<path d="M0 0 C1.12792969 -0.00257813 2.25585938 -0.00515625 3.41796875 -0.0078125 C4.57683594 -0.00007812 5.73570312 0.00765625 6.9296875 0.015625 C8.09628906 0.00789062 9.26289063 0.00015625 10.46484375 -0.0078125 C12.15287109 -0.00394531 12.15287109 -0.00394531 13.875 0 C14.89352051 0.00225586 15.91204102 0.00451172 16.96142578 0.00683594 C19.8046875 0.265625 19.8046875 0.265625 24.8046875 2.265625 C24.8046875 17.115625 24.8046875 31.965625 24.8046875 47.265625 C28.1046875 46.275625 31.4046875 45.285625 34.8046875 44.265625 C48.33664333 42.40040947 61.10617992 46.83138435 71.9921875 54.515625 C84.09361648 66.34813333 86.76248083 82.93857722 87.0546875 99.265625 C86.74102394 116.79157618 82.93241964 134.71787046 70.8046875 148.015625 C58.78626243 159.23014204 42.63648194 162.96997808 26.54296875 162.55078125 C11.87213082 161.43168912 -0.00811864 157.85922193 -13.1953125 151.265625 C-13.1953125 102.095625 -13.1953125 52.925625 -13.1953125 2.265625 C-8.0102809 0.7841874 -5.0798873 0.01122627 0 0 Z M25.8046875 82.265625 C25.8046875 96.455625 25.8046875 110.645625 25.8046875 125.265625 C33.56020682 126.59081981 33.56020682 126.59081981 39.33203125 123.63671875 C43.78044753 119.4950898 44.67190248 112.82250865 44.97265625 107.03125 C45.33887553 94.65372882 45.33887553 94.65372882 40.3046875 83.765625 C37.50493967 80.96587717 36.81613944 80.33158926 32.9296875 80.078125 C29.5273548 80.07692344 29.5273548 80.07692344 25.8046875 82.265625 Z " fill="#7B5F5B" transform="translate(273.1953125,214.734375)"/>
<path d="M0 0 C9.14258966 8.02165913 12.01411473 18.20896294 13 30 C13.30255501 36.93313566 13.19047532 43.87520404 13.125 50.8125 C13.1149448 52.68033371 13.10582347 54.5481727 13.09765625 56.41601562 C13.0758562 60.94414309 13.04146802 65.4720117 13 70 C13.62140869 69.98694824 14.24281738 69.97389648 14.88305664 69.96044922 C15.69637451 69.95029785 16.50969238 69.94014648 17.34765625 69.9296875 C18.15468994 69.91663574 18.96172363 69.90358398 19.79321289 69.89013672 C22 70 22 70 24.4375 71.125 C29.60304608 77.3236553 28.63991561 86.461482 28 94 C26.57898247 99.66942046 24.24190093 104.88664153 20 109 C13.85241636 112.07379182 7.13149362 111.28411288 0.6875 109.28125 C-4.51383146 106.92439668 -8.21847627 103.20694515 -12 99 C-12.44988281 99.45890625 -12.89976562 99.9178125 -13.36328125 100.390625 C-22.27012955 108.88693721 -32.9987824 111.37450837 -45.0703125 111.2109375 C-56.21091176 110.40881435 -65.773577 105.77439989 -73.375 97.625 C-80.46869746 89.07251798 -83.5266347 79.79303835 -83.25 68.67578125 C-82.30008938 58.50876913 -79.30422 49.77962139 -71.75 42.75 C-58.85354604 32.54377407 -42.55042792 33.72341136 -27 34 C-27.495 29.545 -27.495 29.545 -28 25 C-42.02533922 24.62731002 -42.02533922 24.62731002 -55.87109375 26.5625 C-58 27 -58 27 -62 27 C-62.81674796 25.25197854 -63.62823451 23.50149811 -64.4375 21.75 C-64.88996094 20.77546875 -65.34242188 19.8009375 -65.80859375 18.796875 C-67.84870862 14.00762174 -68.81561353 9.21410078 -68 4 C-66.62443536 1.04606311 -65.64780761 -0.61434475 -62.828125 -2.29296875 C-44.35253581 -8.70343833 -17.0778392 -11.4823697 0 0 Z M-40.0625 59.5 C-42.69641596 62.89860124 -43.1605747 65.74899601 -43 70 C-41.97746157 73.91973067 -41.43965202 74.70689866 -38 77 C-36.04785375 77.31478577 -36.04785375 77.31478577 -34 77.25 C-33.319375 77.25515625 -32.63875 77.2603125 -31.9375 77.265625 C-29.67583993 77.09917603 -29.67583993 77.09917603 -27 75 C-26.7791436 72.04935852 -26.71939011 69.31631769 -26.8125 66.375 C-26.82603516 65.57320313 -26.83957031 64.77140625 -26.85351562 63.9453125 C-26.88890949 61.96325622 -26.94271766 59.98154449 -27 58 C-33.7357384 57.51563746 -33.7357384 57.51563746 -40.0625 59.5 Z " fill="#7D615E" transform="translate(218,266)"/>
<path d="M0 0 C0.93392578 -0.01224609 1.86785156 -0.02449219 2.83007812 -0.03710938 C9.06244094 -0.05008445 15.20371153 0.3040275 21.1875 2.1875 C23.1875 4.1875 23.1875 4.1875 23.43359566 6.16712379 C23.43083028 7.39218667 23.43083028 7.39218667 23.42800903 8.64199829 C23.43075836 9.57871872 23.43350769 10.51543915 23.43634033 11.48054504 C23.42914978 12.51128647 23.42195923 13.54202789 23.41455078 14.60400391 C23.41484283 15.68694229 23.41513489 16.76988068 23.41543579 17.88563538 C23.41403828 21.47852488 23.39845718 25.07120906 23.3828125 28.6640625 C23.37908387 31.14985033 23.37623619 33.63563962 23.37423706 36.12142944 C23.36737126 42.00399086 23.35159547 47.88647602 23.33153808 53.76900613 C23.30700986 61.12203258 23.29625255 68.47506813 23.28515625 75.828125 C23.26368531 88.94795437 23.22991768 102.0677225 23.1875 115.1875 C24.26233643 115.16655273 25.33717285 115.14560547 26.44458008 115.12402344 C30.43077278 115.05164626 34.41690739 115.00570908 38.40356445 114.96777344 C40.12924973 114.94765261 41.85486678 114.92035252 43.58032227 114.88574219 C46.0602297 114.83724242 48.53923628 114.81453696 51.01953125 114.796875 C51.79150345 114.77622986 52.56347565 114.75558472 53.35884094 114.73431396 C58.69486991 114.7320765 58.69486991 114.7320765 61.1237793 116.97753906 C66.10105021 127.31819921 65.16349618 141.19374091 62.91796875 152.171875 C61.97850091 154.76420336 61.15618672 156.21813583 59.1875 158.1875 C56.63471284 158.59648966 54.50518312 158.74504606 51.94970703 158.72094727 C51.21602905 158.72956284 50.48235107 158.73817841 49.72644043 158.74705505 C47.29903968 158.76977302 44.87278827 158.76296495 42.4453125 158.75390625 C40.75763607 158.75914021 39.06996257 158.76541585 37.3822937 158.77268982 C33.8431015 158.78310543 30.30431104 158.77851754 26.76513672 158.76391602 C22.23303017 158.74674741 17.70219369 158.77019248 13.17022896 158.80540562 C9.68370181 158.82738763 6.19747798 158.82593593 2.71090317 158.8176403 C1.04036951 158.8168208 -0.63018642 158.82368406 -2.30065536 158.83841133 C-4.63986443 158.85586844 -6.97679963 158.84130766 -9.31591797 158.81860352 C-10.34786789 158.83614182 -10.34786789 158.83614182 -11.40066528 158.85403442 C-15.19022772 158.77934289 -16.73427662 158.25080857 -19.71853638 155.83555603 C-22.82008694 151.9132913 -22.93689444 149.10218083 -22.93275452 144.24604797 C-22.93412918 143.00504333 -22.93550385 141.7640387 -22.93692017 140.48542786 C-22.93338103 139.1078794 -22.92974622 137.73033118 -22.92602539 136.3527832 C-22.92574336 134.90408327 -22.92590157 133.4553832 -22.9264679 132.00668335 C-22.92675524 128.07102362 -22.92086863 124.13539426 -22.91389394 120.1997416 C-22.90764997 116.08776773 -22.90705577 111.97579319 -22.90586853 107.86381531 C-22.9027583 100.07593728 -22.89454905 92.28807326 -22.88451904 84.5002014 C-22.87334836 75.63452251 -22.86784504 66.76884296 -22.86282361 57.90315878 C-22.85236619 39.66459791 -22.83477269 21.42605008 -22.8125 3.1875 C-15.32699628 0.06305376 -7.99961866 0.00545305 0 0 Z " fill="#7A5E5A" transform="translate(66.8125,215.8125)"/>
<path d="M0 0 C2.24779485 2.47257434 2.52180348 3.76918113 2.875 7.0625 C1.18946733 15.13074829 -3.16087249 21.63423376 -8.125 28.0625 C-8.80046875 27.85753906 -9.4759375 27.65257812 -10.171875 27.44140625 C-11.06390625 27.17199219 -11.9559375 26.90257812 -12.875 26.625 C-13.75671875 26.35816406 -14.6384375 26.09132813 -15.546875 25.81640625 C-16.39765625 25.56761719 -17.2484375 25.31882812 -18.125 25.0625 C-18.764375 24.8665625 -19.40375 24.670625 -20.0625 24.46875 C-22.85670769 23.91837576 -25.5302971 23.96907932 -28.375 24 C-29.45265625 24.00902344 -30.5303125 24.01804687 -31.640625 24.02734375 C-32.87039063 24.04474609 -32.87039063 24.04474609 -34.125 24.0625 C-34.455 25.0525 -34.785 26.0425 -35.125 27.0625 C-30.8209308 32.07940247 -25.82078928 34.44842304 -19.9375 37.3125 C-9.34226866 42.68042395 0.7789829 48.17083744 4.875 60.0625 C7.85085602 69.48604405 5.71624263 80.00826336 1.62109375 88.734375 C-4.14494749 99.10382246 -11.86443698 104.54700715 -23.125 108.0625 C-40.19904624 112.06032546 -60.20095992 110.97143991 -76.125 103.0625 C-80.46213997 100.21821618 -83.97454982 97.30343972 -85.125 92.0625 C-85.97409671 83.40171354 -82.87939842 75.76786502 -78.50390625 68.4609375 C-77.82134766 67.76871094 -77.82134766 67.76871094 -77.125 67.0625 C-72.59102346 67.0625 -69.7556034 68.46790226 -65.8125 70.4375 C-59.28093209 73.68021585 -53.14633611 76.39185167 -45.6875 76.1875 C-44.82253906 76.16945313 -43.95757812 76.15140625 -43.06640625 76.1328125 C-42.42574219 76.10960937 -41.78507812 76.08640625 -41.125 76.0625 C-41.43028328 73.04019549 -41.59023307 71.51728042 -43.953125 69.5078125 C-45.15195312 68.85425781 -45.15195312 68.85425781 -46.375 68.1875 C-47.27605469 67.68089844 -48.17710937 67.17429687 -49.10546875 66.65234375 C-51.17998935 65.56006706 -53.26679818 64.49091225 -55.36328125 63.44140625 C-67.11074876 57.46414017 -74.80810228 50.7819308 -79.125 38.0625 C-81.57642385 28.11537631 -80.83717641 17.66192472 -75.7890625 8.6875 C-69.35951608 -0.59613776 -59.4915839 -5.40258163 -48.6015625 -7.5078125 C-32.61179817 -9.48407551 -13.9495587 -8.64872639 0 0 Z " fill="#7D615E" transform="translate(455.125,266.9375)"/>
<path d="M0 0 C0.90105469 -0.02578125 1.80210937 -0.0515625 2.73046875 -0.078125 C5.52001728 0.21886116 7.42378316 0.76743353 10.00512695 1.77050781 C10.71981644 2.0459845 11.43450592 2.32146118 12.17085266 2.60528564 C12.98346809 2.92441925 12.98346809 2.92441925 13.8125 3.25 C13.86203293 8.57021739 13.89828256 13.89029976 13.92236328 19.21069336 C13.93240487 21.01963643 13.9460408 22.82856333 13.96337891 24.63745117 C13.98770832 27.24141435 13.99900161 29.84516242 14.0078125 32.44921875 C14.01813507 33.25461594 14.02845764 34.06001312 14.03909302 34.88981628 C14.03993209 39.11352047 13.85225696 42.43243961 11.8125 46.25 C7.28987346 50.11861927 1.9779126 50.75949636 -3.78125 50.51953125 C-11.81821298 49.61928702 -11.81821298 49.61928702 -14.1875 47.25 C-14.42279412 41.72058824 -14.42279412 41.72058824 -13.1875 39.25 C-8.5675 39.25 -3.9475 39.25 0.8125 39.25 C1.1425 38.26 1.4725 37.27 1.8125 36.25 C1.16023438 36.29640625 0.50796875 36.3428125 -0.1640625 36.390625 C-4.60862256 36.57417615 -7.5431005 36.55462522 -11.625 34.625 C-15.46403316 31.0668717 -17.00365407 27.80026834 -17.62109375 22.59375 C-17.62238281 21.3253125 -17.62367188 20.056875 -17.625 18.75 C-17.64433594 17.4815625 -17.66367187 16.213125 -17.68359375 14.90625 C-16.95537343 9.53920889 -14.58073215 6.50730706 -10.625 2.9375 C-7.05587108 0.46656459 -4.24505738 0.07184864 0 0 Z " fill="#746056" transform="translate(348.1875,152.75)"/>
<path d="M0 0 C3.96 0 7.92 0 12 0 C12 4.95 12 9.9 12 15 C12.66 14.67 13.32 14.34 14 14 C23.2632626 13.54442971 23.2632626 13.54442971 27 16 C30.96369859 22.63157265 30.34157046 29.40384953 30.1875 36.9375 C30.17396484 38.19369141 30.16042969 39.44988281 30.14648438 40.74414062 C30.11128888 43.82961271 30.05748703 46.91486273 30 50 C26.04 50 22.08 50 18 50 C17.505 38.12 17.505 38.12 17 26 C15.35 26 13.7 26 12 26 C12 33.92 12 41.84 12 50 C8.04 50 4.08 50 0 50 C0 33.5 0 17 0 0 Z " fill="#795C58" transform="translate(221,139)"/>
<path d="M0 0 C3.96 0 7.92 0 12 0 C12 4.95 12 9.9 12 15 C12.66 14.67 13.32 14.34 14 14 C18.10661505 13.73071377 20.96609478 13.60941358 24.8125 15.0625 C28.61894504 18.43392275 29.84505271 22.0502598 30.23901367 27.00756836 C30.29485851 30.48890032 30.26156273 33.95655175 30.1875 37.4375 C30.16719727 39.25024414 30.16719727 39.25024414 30.14648438 41.09960938 C30.11130267 44.06659945 30.05750131 47.03335855 30 50 C26.04 50 22.08 50 18 50 C17.505 38.12 17.505 38.12 17 26 C15.35 26 13.7 26 12 26 C12 33.92 12 41.84 12 50 C8.04 50 4.08 50 0 50 C0 33.5 0 17 0 0 Z " fill="#756157" transform="translate(368,139)"/>
<path d="M0 0 C4.73307779 2.83984667 7.48951278 6.1053392 9.1875 11.3125 C10.0656986 18.7159184 9.62424131 25.15448112 5.1875 31.3125 C1.65406487 35.26994735 -2.08202155 36.157993 -7.3125 36.625 C-12.69850532 36.14410667 -16.11270489 34.3581809 -19.625 30.3125 C-24.02235367 24.28184354 -23.38971587 17.51550367 -22.8125 10.3125 C-21.60685148 6.19262678 -19.32789395 3.7910801 -16.1875 0.875 C-10.82578185 -1.60727692 -5.68537641 -1.38975868 0 0 Z " fill="#775E57" transform="translate(278.8125,153.6875)"/>
<path d="M0 0 C4.5206339 -0.07406517 9.040916 -0.12856045 13.56201172 -0.16479492 C15.10048574 -0.17989711 16.63891661 -0.20038046 18.17724609 -0.22631836 C20.38650141 -0.26264074 22.59518848 -0.27971119 24.8046875 -0.29296875 C25.83914505 -0.31619453 25.83914505 -0.31619453 26.89450073 -0.33988953 C28.83544922 -0.34057617 28.83544922 -0.34057617 32 0 C34.45410358 3.68115537 34.23287843 5.65293598 34 10 C33.67 10.99 33.34 11.98 33 13 C29.7 13 26.4 13 23 13 C23 25.21 23 37.42 23 50 C18.38 50 13.76 50 9 50 C9 37.79 9 25.58 9 13 C6.03 13 3.06 13 0 13 C-1.18306728 10.63386544 -1.13354608 9.13219264 -1.125 6.5 C-1.12757813 5.7059375 -1.13015625 4.911875 -1.1328125 4.09375 C-1 2 -1 2 0 0 Z " fill="#795C58" transform="translate(184,139)"/>
<path d="M0 0 C3.96 0 7.92 0 12 0 C12.33 7.92 12.66 15.84 13 24 C14.32 24 15.64 24 17 24 C17.33 16.08 17.66 8.16 18 0 C21.96 0 25.92 0 30 0 C30 7.92 30 15.84 30 24 C31.32 24.33 32.64 24.66 34 25 C34.36923077 32.38461538 34.36923077 32.38461538 32.5 35.5 C31.7575 36.2425 31.7575 36.2425 31 37 C27.26512223 36.5020163 25.18762365 36.12508244 22 34 C21.34 34.495 20.68 34.99 20 35.5 C16.24784479 37.3760776 13.08039574 37.57605587 9 37 C5.12603861 35.684315 3.49286341 34.8059998 1.3503418 31.30224609 C-0.1315715 27.67824334 -0.34660265 25.18645941 -0.29296875 21.2890625 C-0.28330078 20.04511719 -0.27363281 18.80117187 -0.26367188 17.51953125 C-0.23853516 16.23433594 -0.21339844 14.94914063 -0.1875 13.625 C-0.17396484 12.31660156 -0.16042969 11.00820312 -0.14648438 9.66015625 C-0.11122639 6.43992699 -0.05742244 3.21991029 0 0 Z " fill="#795D58" transform="translate(293,153)"/>
<path d="M0 0 C1.51400391 0.01740234 1.51400391 0.01740234 3.05859375 0.03515625 C4.07050781 0.04417969 5.08242188 0.05320313 6.125 0.0625 C7.29869141 0.07990234 7.29869141 0.07990234 8.49609375 0.09765625 C8.49609375 2.73765625 8.49609375 5.37765625 8.49609375 8.09765625 C10.80609375 8.09765625 13.11609375 8.09765625 15.49609375 8.09765625 C15.49609375 11.06765625 15.49609375 14.03765625 15.49609375 17.09765625 C13.51609375 17.09765625 11.53609375 17.09765625 9.49609375 17.09765625 C9.49609375 25.67765625 9.49609375 34.25765625 9.49609375 43.09765625 C5.20609375 43.09765625 0.91609375 43.09765625 -3.50390625 43.09765625 C-3.50390625 34.51765625 -3.50390625 25.93765625 -3.50390625 17.09765625 C-5.15390625 17.09765625 -6.80390625 17.09765625 -8.50390625 17.09765625 C-8.50390625 14.12765625 -8.50390625 11.15765625 -8.50390625 8.09765625 C-6.85390625 8.09765625 -5.20390625 8.09765625 -3.50390625 8.09765625 C-3.52453125 6.96328125 -3.54515625 5.82890625 -3.56640625 4.66015625 C-3.48703508 0.13599981 -3.48703508 0.13599981 0 0 Z " fill="#785D57" transform="translate(410.50390625,145.90234375)"/>
<path d="M0 0 C2.04030539 2.04030539 1.21210959 6.24609674 1.23828125 9.05078125 C1.246353 9.86113327 1.25442474 10.67148529 1.26274109 11.50639343 C1.27659821 13.2255132 1.28731305 14.94466068 1.29516602 16.66381836 C1.31236182 19.29138557 1.35622923 21.91768913 1.40039062 24.54492188 C1.41051872 26.21353239 1.41903446 27.88215363 1.42578125 29.55078125 C1.44328934 30.33632889 1.46079742 31.12187653 1.47883606 31.93122864 C1.46456451 35.52763491 1.33981092 37.56039673 -0.89379883 40.44995117 C-6.30032515 44.42885874 -11.4771473 44.51736468 -18 44 C-24.19419643 42.80580357 -24.19419643 42.80580357 -26 41 C-26.23529412 35.47058824 -26.23529412 35.47058824 -25 33 C-20.38 33 -15.76 33 -11 33 C-10.505 28.545 -10.505 28.545 -10 24 C-12.475 23.01 -12.475 23.01 -15 22 C-14.67 21.01 -14.34 20.02 -14 19 C-12.68 19 -11.36 19 -10 19 C-10 13.72 -10 8.44 -10 3 C-9.34 3 -8.68 3 -8 3 C-7.67 2.01 -7.34 1.02 -7 0 C-3.86350275 -1.04549908 -3.0051095 -1.00170317 0 0 Z " fill="#775E58" transform="translate(360,159)"/>
<path d="M0 0 C2.31 0 4.62 0 7 0 C7 3.96 7 7.92 7 12 C9.165625 12.4021875 9.165625 12.4021875 11.375 12.8125 C13.8359375 13.26953125 13.8359375 13.26953125 16 14 C16.99 15.485 16.99 15.485 18 17 C17.67 17.66 17.34 18.32 17 19 C16.34 19 15.68 19 15 19 C15.33 19.99 15.66 20.98 16 22 C13.36 22.66 10.72 23.32 8 24 C7.67 31.26 7.34 38.52 7 46 C4.36 46 1.72 46 -1 46 C-1.02469669 39.93107399 -1.04285842 33.86217717 -1.05493164 27.79321289 C-1.05996414 25.72810354 -1.06679069 23.66299776 -1.07543945 21.59790039 C-1.08755236 18.63166422 -1.09323911 15.66547511 -1.09765625 12.69921875 C-1.10539818 11.31158577 -1.10539818 11.31158577 -1.11329651 9.8959198 C-1.11337204 9.03525406 -1.11344757 8.17458832 -1.11352539 7.2878418 C-1.115746 6.53061325 -1.11796661 5.7733847 -1.12025452 4.99320984 C-1 3 -1 3 0 0 Z " fill="#7A5C58" transform="translate(224,141)"/>
<path d="M0 0 C3.3 0 6.6 0 10 0 C10.02505615 0.92337158 10.0501123 1.84674316 10.07592773 2.7980957 C10.17109045 6.22546416 10.27032214 9.65266461 10.37231445 13.07983398 C10.4156133 14.56286015 10.45729199 16.04593454 10.49731445 17.52905273 C10.55513958 19.66144339 10.61879832 21.79359242 10.68359375 23.92578125 C10.72025146 25.20880127 10.75690918 26.49182129 10.79467773 27.8137207 C10.86561234 31.02111551 10.86561234 31.02111551 12 34 C8.7 33.34 5.4 32.68 2 32 C0.38890635 27.74648979 -0.24026702 24.26696904 -0.1953125 19.7265625 C-0.18886719 18.57285156 -0.18242187 17.41914063 -0.17578125 16.23046875 C-0.15902344 15.04066406 -0.14226562 13.85085937 -0.125 12.625 C-0.11597656 11.41199219 -0.10695313 10.19898438 -0.09765625 8.94921875 C-0.07416588 5.96594227 -0.04131682 2.98307406 0 0 Z " fill="#775E57" transform="translate(294,154)"/>
<path d="M0 0 C1.21042969 -0.020625 2.42085938 -0.04125 3.66796875 -0.0625 C4.83972656 -0.06765625 6.01148438 -0.0728125 7.21875 -0.078125 C8.81106445 -0.09214355 8.81106445 -0.09214355 10.43554688 -0.10644531 C13.5 0.25 13.5 0.25 19.5 3.25 C19.5 18.1 19.5 32.95 19.5 48.25 C22.47 47.755 22.47 47.755 25.5 47.25 C22.5 49.25 22.5 49.25 18.5 49.25 C18.17 34.4 17.84 19.55 17.5 4.25 C13.93600387 3.35900097 11.2970128 3.12118582 7.66796875 3.1171875 C5.97510742 3.11525391 5.97510742 3.11525391 4.24804688 3.11328125 C3.07306641 3.11714844 1.89808594 3.12101563 0.6875 3.125 C-1.05756836 3.11919922 -1.05756836 3.11919922 -2.83789062 3.11328125 C-3.97033203 3.11457031 -5.10277344 3.11585938 -6.26953125 3.1171875 C-7.29667236 3.11831543 -8.32381348 3.11944336 -9.38208008 3.12060547 C-12.77274754 3.2613191 -16.14052122 3.77007446 -19.5 4.25 C-19.5 53.09 -19.5 101.93 -19.5 152.25 C-19.83 152.25 -20.16 152.25 -20.5 152.25 C-20.83 103.08 -21.16 53.91 -21.5 3.25 C-20.84 3.25 -20.18 3.25 -19.5 3.25 C-19.5 2.59 -19.5 1.93 -19.5 1.25 C-12.98183679 0.03181145 -6.61307508 0.02817071 0 0 Z " fill="#9CCEA3" transform="translate(279.5,212.75)"/>
<path d="M0 0 C1.79133978 -0.05391993 3.58313899 -0.09275571 5.375 -0.125 C6.37273437 -0.14820313 7.37046875 -0.17140625 8.3984375 -0.1953125 C11 0 11 0 13 2 C13.1953125 5.0390625 13.1953125 5.0390625 13.125 8.625 C13.10695312 9.81351563 13.08890625 11.00203125 13.0703125 12.2265625 C13.04710937 13.14179688 13.02390625 14.05703125 13 15 C13.87011719 14.94779297 13.87011719 14.94779297 14.7578125 14.89453125 C19.92560405 14.71544936 23.62469163 14.90526969 28 18 C29.73381475 21.51229009 30.34148517 24.6803495 30.66796875 28.5625 C30.75626953 29.60664063 30.84457031 30.65078125 30.93554688 31.7265625 C31.06026367 33.34691406 31.06026367 33.34691406 31.1875 35 C31.32961914 36.62035156 31.32961914 36.62035156 31.47460938 38.2734375 C32.25616474 47.93847326 32.25616474 47.93847326 31 52 C27.65418921 54.23054053 26.35990189 54.29683128 22.4375 54.3125 C21.46683594 54.32925781 20.49617188 54.34601563 19.49609375 54.36328125 C18.67238281 54.24339844 17.84867188 54.12351563 17 54 C14.87719437 50.81579155 14.71980463 49.79462745 14.5859375 46.11328125 C14.52792969 44.7065918 14.52792969 44.7065918 14.46875 43.27148438 C14.4378125 42.29501953 14.406875 41.31855469 14.375 40.3125 C14.33632812 39.32443359 14.29765625 38.33636719 14.2578125 37.31835938 C14.16354133 34.87909293 14.07793782 32.43983405 14 30 C13.97494385 30.62044189 13.9498877 31.24088379 13.92407227 31.88012695 C13.80803279 34.69112397 13.68534241 37.50179241 13.5625 40.3125 C13.52318359 41.28896484 13.48386719 42.26542969 13.44335938 43.27148438 C13.40146484 44.20927734 13.35957031 45.14707031 13.31640625 46.11328125 C13.26141968 47.40939331 13.26141968 47.40939331 13.20532227 48.73168945 C13 51 13 51 12 54 C8.04 54 4.08 54 0 54 C0 53.34 0 52.68 0 52 C3.63 52 7.26 52 11 52 C11 44.08 11 36.16 11 28 C12.65 27.67 14.3 27.34 16 27 C17 28 17 28 17.11352539 30.31665039 C17.10828857 31.31688232 17.10305176 32.31711426 17.09765625 33.34765625 C17.09443359 34.42724609 17.09121094 35.50683594 17.08789062 36.61914062 C17.07951172 37.75544922 17.07113281 38.89175781 17.0625 40.0625 C17.05798828 41.20267578 17.05347656 42.34285156 17.04882812 43.51757812 C17.0369976 46.34507418 17.0190615 49.17254345 17 52 C20.96 52 24.92 52 29 52 C28.88579824 47.64530654 28.75904075 43.29159021 28.625 38.9375 C28.5940625 37.70837891 28.563125 36.47925781 28.53125 35.21289062 C28.33533859 29.15596296 28.08876869 23.71439565 26 18 C21.01354726 16.67027927 16.12222534 16.93170366 11 17 C11 12.05 11 7.1 11 2 C7.37 2 3.74 2 0 2 C0 1.34 0 0.68 0 0 Z " fill="#7CE092" transform="translate(222,137)"/>
<path d="M0 0 C3.3386361 2.90784435 4.38949951 4.65141885 5 9 C5.07747197 10.76552798 5.10799073 12.53358456 5.09765625 14.30078125 C5.09443359 15.27724609 5.09121094 16.25371094 5.08789062 17.25976562 C5.07951172 18.26716797 5.07113281 19.27457031 5.0625 20.3125 C5.05798828 21.33923828 5.05347656 22.36597656 5.04882812 23.42382812 C5.03708201 25.94924388 5.01914771 28.47462952 5 31 C1.7 31 -1.6 31 -5 31 C-5.02892385 26.87501462 -5.04677267 22.75005515 -5.0625 18.625 C-5.07087891 17.449375 -5.07925781 16.27375 -5.08789062 15.0625 C-5.09111328 13.94101563 -5.09433594 12.81953125 -5.09765625 11.6640625 C-5.10289307 10.62717285 -5.10812988 9.5902832 -5.11352539 8.52197266 C-5 6 -5 6 -4 4 C-4.66 3.67 -5.32 3.34 -6 3 C-3.92446352 2.4465236 -2.15634036 2 0 2 C0 1.34 0 0.68 0 0 Z " fill="#795C58" transform="translate(392,156)"/>
<path d="M0 0 C0.61875 0.33 1.2375 0.66 1.875 1 C1.875 1.66 1.875 2.32 1.875 3 C-1.095 4.32 -4.065 5.64 -7.125 7 C-6.48304688 7.35964844 -5.84109375 7.71929687 -5.1796875 8.08984375 C-2.30825672 10.75929176 -2.46529721 12.70867993 -2.25 16.5625 C-2.17007812 17.71878906 -2.09015625 18.87507813 -2.0078125 20.06640625 C-2.125 23 -2.125 23 -4.125 25 C-7.75 25.125 -7.75 25.125 -11.125 25 C-12.49752731 22.25494537 -12.25729255 19.99672588 -12.25 16.9375 C-12.25386719 15.31134766 -12.25386719 15.31134766 -12.2578125 13.65234375 C-12.125 11 -12.125 11 -11.125 10 C-11.785 9.67 -12.445 9.34 -13.125 9 C-13.125 7.35 -13.125 5.7 -13.125 4 C-17.25112615 3.55155147 -17.25112615 3.55155147 -19.875 6.5 C-20.6175 7.325 -21.36 8.15 -22.125 9 C-20.77217831 4.57258356 -18.89201112 2.63690779 -15.125 0 C-10.67416655 -2.22541672 -4.60248787 -1.47279612 0 0 Z " fill="#6C6854" transform="translate(279.125,154)"/>
<path d="M0 0 C4.5206339 -0.07406517 9.040916 -0.12856045 13.56201172 -0.16479492 C15.10048574 -0.17989711 16.63891661 -0.20038046 18.17724609 -0.22631836 C20.38650141 -0.26264074 22.59518848 -0.27971119 24.8046875 -0.29296875 C25.83914505 -0.31619453 25.83914505 -0.31619453 26.89450073 -0.33988953 C28.83544922 -0.34057617 28.83544922 -0.34057617 32 0 C34.45410358 3.68115537 34.23287843 5.65293598 34 10 C33.67 10.99 33.34 11.98 33 13 C30.03 13 27.06 13 24 13 C24 12.67 24 12.34 24 12 C27.465 11.505 27.465 11.505 31 11 C31 8.03 31 5.06 31 2 C21.1 2 11.2 2 1 2 C1 5.3 1 8.6 1 12 C3.1965625 11.9690625 3.1965625 11.9690625 5.4375 11.9375 C6.95832518 11.91607993 8.48071962 11.92820036 10 12 C12.00503509 14.00503509 11.25588663 18.00025444 11.31640625 20.75390625 C11.33718735 21.52935287 11.35796844 22.3047995 11.37937927 23.10374451 C11.44495802 25.58990308 11.50379799 28.07617045 11.5625 30.5625 C11.60567733 32.24415204 11.64929136 33.92579294 11.69335938 35.60742188 C11.80064779 39.73816871 11.90189132 43.86902536 12 48 C14.97 48 17.94 48 21 48 C21.33 36.78 21.66 25.56 22 14 C22.33 14 22.66 14 23 14 C23 25.88 23 37.76 23 50 C18.38 50 13.76 50 9 50 C9 37.79 9 25.58 9 13 C6.03 13 3.06 13 0 13 C-1.18306728 10.63386544 -1.13354608 9.13219264 -1.125 6.5 C-1.12757813 5.7059375 -1.13015625 4.911875 -1.1328125 4.09375 C-1 2 -1 2 0 0 Z " fill="#627B56" transform="translate(184,139)"/>
<path d="M0 0 C1.0363559 0.00182281 2.07271179 0.00364563 3.14047241 0.00552368 C28.77441811 0.0813119 53.15714975 2.99808916 78.25 8.3125 C74.41868595 10.86670937 71.93105832 10.1758569 67.625 9.5 C66.93148437 9.40396484 66.23796875 9.30792969 65.5234375 9.20898438 C60.40115179 8.46365179 60.40115179 8.46365179 59.25 7.3125 C57.60892758 7.10410985 55.96143707 6.94498275 54.3125 6.8125 C49.46955403 6.42227702 49.46955403 6.42227702 47.25 5.3125 C45.838364 5.17346846 44.42126563 5.08727093 43.00390625 5.03125 C42.16666016 4.99386719 41.32941406 4.95648438 40.46679688 4.91796875 C39.59087891 4.88316406 38.71496094 4.84835938 37.8125 4.8125 C36.08447329 4.74353219 34.35659269 4.67077215 32.62890625 4.59375 C31.8613501 4.56345703 31.09379395 4.53316406 30.30297852 4.50195312 C28.25 4.3125 28.25 4.3125 25.25 3.3125 C23.17971727 3.22328114 21.10662411 3.19490349 19.03442383 3.19897461 C17.11277153 3.19908791 17.11277153 3.19908791 15.15229797 3.19920349 C13.75387534 3.20431013 12.3554531 3.20952613 10.95703125 3.21484375 C9.52642364 3.21670911 8.09581539 3.21813246 6.66520691 3.21913147 C2.90213249 3.22294733 -0.86090325 3.23276968 -4.6239624 3.24383545 C-8.46479774 3.25406957 -12.30563933 3.25863338 -16.14648438 3.26367188 C-23.6810072 3.27439278 -31.21549818 3.29145804 -38.75 3.3125 C-38.75 2.9825 -38.75 2.6525 -38.75 2.3125 C-25.80816744 0.26825213 -13.08238263 -0.04768061 0 0 Z " fill="#90EFAB" transform="translate(300.75,70.6875)"/>
<path d="M0 0 C3.96 0 7.92 0 12 0 C12 4.62 12 9.24 12 14 C11.34 14 10.68 14 10 14 C10 10.04 10 6.08 10 2 C7.69 2 5.38 2 3 2 C2.67 17.18 2.34 32.36 2 48 C4.64 48 7.28 48 10 48 C9.97643433 47.01604248 9.97643433 47.01604248 9.95239258 46.01220703 C9.89016348 43.04989184 9.85104832 40.0877139 9.8125 37.125 C9.78736328 36.09246094 9.76222656 35.05992187 9.73632812 33.99609375 C9.72182617 32.51689453 9.72182617 32.51689453 9.70703125 31.0078125 C9.68346558 29.64100342 9.68346558 29.64100342 9.65942383 28.24658203 C9.77181396 27.50520996 9.8842041 26.76383789 10 26 C13 24 13 24 15.1875 24.375 C16.0846875 24.684375 16.0846875 24.684375 17 25 C15.35 25.33 13.7 25.66 12 26 C12 33.92 12 41.84 12 50 C8.04 50 4.08 50 0 50 C0 33.5 0 17 0 0 Z " fill="#617553" transform="translate(221,139)"/>
<path d="M0 0 C1.32 0.33 2.64 0.66 4 1 C4 16.51 4 32.02 4 48 C3.67 48 3.34 48 3 48 C2.67 36.45 2.34 24.9 2 13 C0.68 13.99 -0.64 14.98 -2 16 C-4.75 16.1875 -4.75 16.1875 -7 16 C-7.02505615 17.0194873 -7.0501123 18.03897461 -7.07592773 19.08935547 C-7.16997004 22.86520354 -7.27019837 26.64086627 -7.37231445 30.41650391 C-7.41567538 32.05187653 -7.45734961 33.68729477 -7.49731445 35.32275391 C-7.55498912 37.67103841 -7.61869129 40.01909304 -7.68359375 42.3671875 C-7.70866249 43.46726639 -7.70866249 43.46726639 -7.73423767 44.58956909 C-7.88612829 49.77225659 -7.88612829 49.77225659 -9 52 C-13.62 52 -18.24 52 -23 52 C-23 51.34 -23 50.68 -23 50 C-18.71 50 -14.42 50 -10 50 C-10 37.79 -10 25.58 -10 13 C-6.7 13 -3.4 13 0 13 C0 8.71 0 4.42 0 0 Z " fill="#79DA90" transform="translate(217,139)"/>
<path d="M0 0 C3.96 0 7.92 0 12 0 C12.33 7.92 12.66 15.84 13 24 C14.32 24 15.64 24 17 24 C17.33 16.08 17.66 8.16 18 0 C21.96 0 25.92 0 30 0 C30 7.92 30 15.84 30 24 C31.32 24.33 32.64 24.66 34 25 C34 27.64 34 30.28 34 33 C33.67 33 33.34 33 33 33 C32.8453125 31.576875 32.8453125 31.576875 32.6875 30.125 C32.31460705 26.70892499 32.31460705 26.70892499 29 25 C28.65942383 22.66162109 28.65942383 22.66162109 28.70703125 19.7734375 C28.71669922 18.7421875 28.72636719 17.7109375 28.73632812 16.6484375 C28.76146484 15.56820312 28.78660156 14.48796875 28.8125 13.375 C28.83280273 11.74304688 28.83280273 11.74304688 28.85351562 10.078125 C28.88895246 7.38492591 28.93835669 4.69270626 29 2 C26.03 2 23.06 2 20 2 C20.01047363 2.65597168 20.02094727 3.31194336 20.03173828 3.98779297 C20.07322503 6.95015658 20.09930262 9.91245916 20.125 12.875 C20.14175781 13.90753906 20.15851563 14.94007813 20.17578125 16.00390625 C20.18222656 16.99003906 20.18867188 17.97617188 20.1953125 18.9921875 C20.20578613 19.90339355 20.21625977 20.81459961 20.22705078 21.75341797 C20 24 20 24 18 26 C14.9375 26.1875 14.9375 26.1875 12 26 C11 25 11 25 10.88647461 22.68334961 C10.89171143 21.68311768 10.89694824 20.68288574 10.90234375 19.65234375 C10.90556641 18.57275391 10.90878906 17.49316406 10.91210938 16.38085938 C10.92048828 15.24455078 10.92886719 14.10824219 10.9375 12.9375 C10.94201172 11.79732422 10.94652344 10.65714844 10.95117188 9.48242188 C10.96300253 6.65489649 10.9794859 3.8274736 11 1 C7.7 1 4.4 1 1 1 C1.13917549 5.22941329 1.28750221 9.45845778 1.4375 13.6875 C1.47681641 14.88568359 1.51613281 16.08386719 1.55664062 17.31835938 C1.59853516 18.47529297 1.64042969 19.63222656 1.68359375 20.82421875 C1.73858032 22.41882935 1.73858032 22.41882935 1.79467773 24.0456543 C1.9848525 26.78204532 2.3931507 29.32856732 3 32 C1 31 1 31 0 28 C-0.0833804 25.86205475 -0.10733747 23.72157991 -0.09765625 21.58203125 C-0.09443359 20.32841797 -0.09121094 19.07480469 -0.08789062 17.78320312 C-0.07951172 16.47287109 -0.07113281 15.16253906 -0.0625 13.8125 C-0.05748317 12.47721519 -0.05292059 11.14192859 -0.04882812 9.80664062 C-0.03702695 6.53771527 -0.02056297 3.26888009 0 0 Z " fill="#587F52" transform="translate(293,153)"/>
<path d="M0 0 C3.96 0 7.92 0 12 0 C12 4.62 12 9.24 12 14 C11.67 14 11.34 14 11 14 C10.67 10.37 10.34 6.74 10 3 C7.36 2.67 4.72 2.34 2 2 C2.0721875 3.06992188 2.144375 4.13984375 2.21875 5.2421875 C3.08709695 19.16514797 3.10613364 33.05404028 3 47 C5.64 47.33 8.28 47.66 11 48 C11 40.41 11 32.82 11 25 C11.99 25.33 12.98 25.66 14 26 C13.34 26 12.68 26 12 26 C12 33.92 12 41.84 12 50 C8.04 50 4.08 50 0 50 C0 33.5 0 17 0 0 Z " fill="#667555" transform="translate(368,139)"/>
<path d="M0 0 C9.46811493 -0.32095305 9.46811493 -0.32095305 13 2 C16.96369859 8.63157265 16.34157046 15.40384953 16.1875 22.9375 C16.16719727 24.82178711 16.16719727 24.82178711 16.14648438 26.74414062 C16.11128888 29.82961271 16.05748703 32.91486273 16 36 C12.04 36 8.08 36 4 36 C4 27.75 4 19.5 4 11 C4.66 11 5.32 11 6 11 C6 18.59 6 26.18 6 34 C8.64 34 11.28 34 14 34 C13.88162872 30.06710455 13.75737207 26.13444334 13.62768555 22.2019043 C13.56312994 20.20696681 13.5032217 18.21188071 13.44335938 16.21679688 C13.40146484 14.96318359 13.35957031 13.70957031 13.31640625 12.41796875 C13.27974854 11.26063232 13.24309082 10.1032959 13.20532227 8.91088867 C13.11671491 5.9356554 13.11671491 5.9356554 12 3 C7.71 2.67 3.42 2.34 -1 2 C-0.67 1.34 -0.34 0.68 0 0 Z " fill="#5F7553" transform="translate(235,153)"/>
<path d="M0 0 C1.98 0 3.96 0 6 0 C6 7.92 6 15.84 6 24 C4.35 24.33 2.7 24.66 1 25 C0 24 0 24 -0.11352539 21.68334961 C-0.10828857 20.68311768 -0.10305176 19.68288574 -0.09765625 18.65234375 C-0.09443359 17.57275391 -0.09121094 16.49316406 -0.08789062 15.38085938 C-0.07951172 14.24455078 -0.07113281 13.10824219 -0.0625 11.9375 C-0.05798828 10.79732422 -0.05347656 9.65714844 -0.04882812 8.48242188 C-0.03699747 5.65489649 -0.0205141 2.8274736 0 0 Z " fill="#75EA92" transform="translate(305,153)"/>
<path d="M0 0 C0.66 0.66 1.32 1.32 2 2 C0.98679687 1.96519531 -0.02640625 1.93039063 -1.0703125 1.89453125 C-2.4218583 1.86637405 -3.77342219 1.83907597 -5.125 1.8125 C-5.79015625 1.78736328 -6.4553125 1.76222656 -7.140625 1.73632812 C-11.87831838 1.66665616 -14.98588858 2.50522089 -19 5 C-24.3647506 10.94472363 -24.3320236 15.47720993 -24.234375 23.265625 C-23.96094471 27.62228098 -23.17973022 30.27629421 -21 34 C-22.65 34 -24.3 34 -26 34 C-25.67 32.02 -25.34 30.04 -25 28 C-25.66 28 -26.32 28 -27 28 C-27.103125 29.0725 -27.20625 30.145 -27.3125 31.25 C-28.32459016 36.7704918 -28.32459016 36.7704918 -31 39 C-35.81131175 39.5446768 -39.51992202 38.74832312 -44 37 C-42.68 36.01 -41.36 35.02 -40 34 C-39.1646875 34.7734375 -39.1646875 34.7734375 -38.3125 35.5625 C-35.72324645 37.53765777 -35.72324645 37.53765777 -31 36 C-30.34 32.7 -29.68 29.4 -29 26 C-28.34 26 -27.68 26 -27 26 C-27.02320313 24.97519531 -27.04640625 23.95039063 -27.0703125 22.89453125 C-27.08908036 21.53386149 -27.10727947 20.1731838 -27.125 18.8125 C-27.14175781 18.13896484 -27.15851563 17.46542969 -27.17578125 16.77148438 C-27.21553081 12.69715473 -26.80217024 9.65734549 -25 6 C-24.62875 5.236875 -24.2575 4.47375 -23.875 3.6875 C-23.441875 2.8521875 -23.441875 2.8521875 -23 2 C-22.67 2.66 -22.34 3.32 -22 4 C-20.96875 3.34 -19.9375 2.68 -18.875 2 C-12.98414838 -0.98780604 -6.44721648 -0.72763861 0 0 Z " fill="#7ADC90" transform="translate(356,152)"/>
<path d="M0 0 C0.33 0 0.66 0 1 0 C1 14 1 28 1 42 C1.33 42 1.66 42 2 42 C2 43.65 2 45.3 2 47 C-2.62792331 49.12634314 -4.22488654 48.59170449 -9 47 C-9.33 47.99 -9.66 48.98 -10 50 C-12.98001838 49.52570278 -15.95894287 49.04581304 -18.9375 48.5625 C-19.78763672 48.42779297 -20.63777344 48.29308594 -21.51367188 48.15429688 C-22.32255859 48.02216797 -23.13144531 47.89003906 -23.96484375 47.75390625 C-25.08814087 47.57323608 -25.08814087 47.57323608 -26.23413086 47.38891602 C-28 47 -28 47 -29 46 C-29.07205511 44.31391034 -29.08386068 42.62499341 -29.0625 40.9375 C-29.05347656 40.01839844 -29.04445313 39.09929687 -29.03515625 38.15234375 C-29.02355469 37.44207031 -29.01195312 36.73179687 -29 36 C-28.34 36 -27.68 36 -27 36 C-27 38.64 -27 41.28 -27 44 C-20.13356222 46.38832618 -13.33529018 47.42941008 -6.5 44.5 C-5.675 44.005 -4.85 43.51 -4 43 C-3.34 43 -2.68 43 -2 43 C-0.86696706 38.39932177 -0.78132392 33.90896499 -0.68359375 29.19921875 C-0.66281265 28.36284378 -0.64203156 27.52646881 -0.62062073 26.66474915 C-0.55548966 24.00574579 -0.4964105 21.34664772 -0.4375 18.6875 C-0.39428008 16.87954769 -0.3506647 15.07160478 -0.30664062 13.26367188 C-0.19984584 8.84254378 -0.09847675 4.42132088 0 0 Z " fill="#74E88F" transform="translate(362,156)"/>
<path d="M0 0 C2.8125 -0.3125 2.8125 -0.3125 6 0 C9.27547283 4.00716659 9.36425941 7.39555308 9.328125 12.453125 C9.32531525 13.50436554 9.32531525 13.50436554 9.32244873 14.57684326 C9.31575582 16.04932455 9.30189647 17.52178888 9.28125 18.99414062 C9.24990751 21.25667697 9.24025732 23.5185174 9.234375 25.78125 C9.16364954 36.83635046 9.16364954 36.83635046 8 38 C6.00200428 38.09873816 4.00042842 38.12971799 2 38.125 C0.906875 38.12757813 -0.18625 38.13015625 -1.3125 38.1328125 C-4 38 -4 38 -5 37 C-5.08726223 35.21928754 -5.10699041 33.4351686 -5.09765625 31.65234375 C-5.09443359 30.57275391 -5.09121094 29.49316406 -5.08789062 28.38085938 C-5.07951172 27.24455078 -5.07113281 26.10824219 -5.0625 24.9375 C-5.05798828 23.79732422 -5.05347656 22.65714844 -5.04882812 21.48242188 C-5.03699747 18.65489649 -5.0205141 15.8274736 -5 13 C-5.99 13.33 -6.98 13.66 -8 14 C-8.33 21.26 -8.66 28.52 -9 36 C-9.33 36 -9.66 36 -10 36 C-10 28.08 -10 20.16 -10 12 C-8.35 11.67 -6.7 11.34 -5 11 C-4 12 -4 12 -3.88647461 14.31665039 C-3.89171143 15.31688232 -3.89694824 16.31711426 -3.90234375 17.34765625 C-3.90717773 18.96704102 -3.90717773 18.96704102 -3.91210938 20.61914062 C-3.92048828 21.75544922 -3.92886719 22.89175781 -3.9375 24.0625 C-3.94201172 25.20267578 -3.94652344 26.34285156 -3.95117188 27.51757812 C-3.9630024 30.34507418 -3.9809385 33.17254345 -4 36 C-0.04 36 3.92 36 8 36 C7.91280269 31.8115222 7.80586995 27.62511617 7.6875 23.4375 C7.66494141 22.25607422 7.64238281 21.07464844 7.61914062 19.85742188 C7.42476081 13.54891319 7.16741034 8.52744158 4 3 C1.97053147 1.07663031 1.97053147 1.07663031 0 0 Z " fill="#7BE191" transform="translate(390,153)"/>
<path d="M0 0 C1.51400391 0.01740234 1.51400391 0.01740234 3.05859375 0.03515625 C4.07050781 0.04417969 5.08242188 0.05320313 6.125 0.0625 C7.29869141 0.07990234 7.29869141 0.07990234 8.49609375 0.09765625 C8.49609375 2.40765625 8.49609375 4.71765625 8.49609375 7.09765625 C8.16609375 7.09765625 7.83609375 7.09765625 7.49609375 7.09765625 C7.49609375 5.11765625 7.49609375 3.13765625 7.49609375 1.09765625 C4.52609375 1.09765625 1.55609375 1.09765625 -1.50390625 1.09765625 C-1.83390625 3.73765625 -2.16390625 6.37765625 -2.50390625 9.09765625 C-4.15390625 9.09765625 -5.80390625 9.09765625 -7.50390625 9.09765625 C-7.17390625 11.07765625 -6.84390625 13.05765625 -6.50390625 15.09765625 C-5.86453125 15.22140625 -5.22515625 15.34515625 -4.56640625 15.47265625 C-3.88578125 15.67890625 -3.20515625 15.88515625 -2.50390625 16.09765625 C-1.24552068 18.61442738 -1.29571652 20.51058913 -1.1875 23.32421875 C-1.14560547 24.35546875 -1.10371094 25.38671875 -1.06054688 26.44921875 C-1.02123047 27.52945313 -0.98191406 28.6096875 -0.94140625 29.72265625 C-0.89822266 30.810625 -0.85503906 31.89859375 -0.81054688 33.01953125 C-0.70426095 35.71210795 -0.60222568 38.40477878 -0.50390625 41.09765625 C2.46609375 41.42765625 5.43609375 41.75765625 8.49609375 42.09765625 C8.49609375 33.84765625 8.49609375 25.59765625 8.49609375 17.09765625 C8.82609375 17.09765625 9.15609375 17.09765625 9.49609375 17.09765625 C9.49609375 25.67765625 9.49609375 34.25765625 9.49609375 43.09765625 C5.20609375 43.09765625 0.91609375 43.09765625 -3.50390625 43.09765625 C-3.50390625 34.51765625 -3.50390625 25.93765625 -3.50390625 17.09765625 C-5.15390625 17.09765625 -6.80390625 17.09765625 -8.50390625 17.09765625 C-8.50390625 14.12765625 -8.50390625 11.15765625 -8.50390625 8.09765625 C-6.85390625 8.09765625 -5.20390625 8.09765625 -3.50390625 8.09765625 C-3.52453125 6.96328125 -3.54515625 5.82890625 -3.56640625 4.66015625 C-3.48703508 0.13599981 -3.48703508 0.13599981 0 0 Z " fill="#5D734F" transform="translate(410.50390625,145.90234375)"/>
<path d="M0 0 C7.75 0.75 7.75 0.75 10 3 C10.24609566 4.97962379 10.24609566 4.97962379 10.24050903 7.45449829 C10.24325836 8.39121872 10.24600769 9.32793915 10.24884033 10.29304504 C10.24164978 11.32378647 10.23445923 12.35452789 10.22705078 13.41650391 C10.22734283 14.49944229 10.22763489 15.58238068 10.22793579 16.69813538 C10.22653828 20.29102488 10.21095718 23.88370906 10.1953125 27.4765625 C10.19158387 29.96235033 10.18873619 32.44813962 10.18673706 34.93392944 C10.17987126 40.81649086 10.16409547 46.69897602 10.14403808 52.58150613 C10.11950986 59.93453258 10.10875255 67.28756813 10.09765625 74.640625 C10.07618531 87.76045437 10.04241768 100.8802225 10 114 C9.67 114 9.34 114 9 114 C9 77.7 9 41.4 9 4 C6.69 3.67 4.38 3.34 2 3 C1.34 2.01 0.68 1.02 0 0 Z " fill="#B2A4A0" transform="translate(80,217)"/>
<path d="M0 0 C1.98 0 3.96 0 6 0 C7.5121867 3.02437339 7.17263369 5.66241534 7 9 C6 11.4375 6 11.4375 5 13 C0.125 12.125 0.125 12.125 -1 11 C-1.09823996 9.52351124 -1.12973519 8.04224583 -1.125 6.5625 C-1.12757813 5.75941406 -1.13015625 4.95632812 -1.1328125 4.12890625 C-1 2 -1 2 0 0 Z " fill="#73E393" transform="translate(269,165)"/>
<path d="M0 0 C2.6015625 -0.29296875 2.6015625 -0.29296875 5.625 -0.1875 C7.12933594 -0.14689453 7.12933594 -0.14689453 8.6640625 -0.10546875 C9.43492187 -0.07066406 10.20578125 -0.03585938 11 0 C11 0.66 11 1.32 11 2 C7.37 2 3.74 2 0 2 C0.08124692 6.52154847 0.19406307 11.04178484 0.3125 15.5625 C0.33505859 16.83931641 0.35761719 18.11613281 0.38085938 19.43164062 C0.56775491 25.97298443 0.76798682 31.23783173 4 37 C2 37 2 37 -0.09619141 35.42797852 C-2.62967573 32.19695753 -2.48845965 30.22751087 -2.4609375 26.15234375 C-2.46002106 25.49923721 -2.45910461 24.84613068 -2.4581604 24.17323303 C-2.45213647 22.79729919 -2.43642632 21.42137772 -2.41162109 20.0456543 C-2.37505649 17.94075193 -2.37060229 15.83760907 -2.37109375 13.73242188 C-2.29556947 3.44335421 -2.29556947 3.44335421 0 0 Z " fill="#7AE092" transform="translate(293,151)"/>
<path d="M0 0 C0 4.62 0 9.24 0 14 C-1.65 14 -3.3 14 -5 14 C-7.09678815 10.59271925 -7.4133256 7.96792579 -7 4 C-4.94946079 0.10397549 -4.61657431 0 0 0 Z " fill="#79CA8B" transform="translate(350,164)"/>
<path d="M0 0 C0.33 0 0.66 0 1 0 C0.85980308 2.81288705 0.71312045 5.62516885 0.5625 8.4375 C0.50352539 9.64116211 0.50352539 9.64116211 0.44335938 10.86914062 C0.11328125 16.88671875 0.11328125 16.88671875 -1 18 C-1.09899523 19.54955559 -1.13079524 21.10353673 -1.1328125 22.65625 C-1.13410156 23.59597656 -1.13539063 24.53570312 -1.13671875 25.50390625 C-1.13285156 26.49261719 -1.12898437 27.48132813 -1.125 28.5 C-1.12886719 29.48871094 -1.13273438 30.47742188 -1.13671875 31.49609375 C-1.13542969 32.43582031 -1.13414062 33.37554687 -1.1328125 34.34375 C-1.13168457 35.21193359 -1.13055664 36.08011719 -1.12939453 36.97460938 C-1.2241537 38.99604154 -1.2241537 38.99604154 0 40 C0.07244053 42.01964199 0.08377188 44.04167124 0.0625 46.0625 C0.05347656 47.16722656 0.04445312 48.27195313 0.03515625 49.41015625 C0.02355469 50.26480469 0.01195312 51.11945313 0 52 C-0.33 52 -0.66 52 -1 52 C-2.79427053 43.84618562 -3.35023412 36.02497266 -3.3125 27.6875 C-3.31121094 26.50502686 -3.30992187 25.32255371 -3.30859375 24.10424805 C-3.21640561 15.72722656 -2.49719451 8.04156088 0 0 Z " fill="#91F0AE" transform="translate(167,142)"/>
<path d="M0 0 C0.8125 1.6875 0.8125 1.6875 1 4 C-1.375 6.5625 -1.375 6.5625 -4 9 C-4.33 9.99 -4.66 10.98 -5 12 C-7 9 -7 9 -7 6 C-7.9590625 5.566875 -7.9590625 5.566875 -8.9375 5.125 C-11 4 -11 4 -12 2 C-4.71428571 -1.57142857 -4.71428571 -1.57142857 0 0 Z " fill="#7B5C58" transform="translate(283,158)"/>
<path d="M0 0 C0.74958984 0.00451172 1.49917969 0.00902344 2.27148438 0.01367188 C4.11852383 0.02543646 5.96552213 0.04337135 7.8125 0.0625 C7.8125 0.7225 7.8125 1.3825 7.8125 2.0625 C-4.51464599 3.15693646 -16.83800838 4.24918859 -29.1875 5.0625 C-28.1875 3.0625 -28.1875 3.0625 -26.53515625 2.46875 C-22.44721842 1.7613531 -18.31955756 1.60664895 -14.18359375 1.34375 C-9.33102237 0.88822831 -4.9678153 -0.05640314 0 0 Z " fill="#92F0B0" transform="translate(328.1875,246.9375)"/>
<path d="M0 0 C3.63 0 7.26 0 11 0 C11 7.59 11 15.18 11 23 C12.32 23.33 13.64 23.66 15 24 C15 26.64 15 29.28 15 32 C14.67 32 14.34 32 14 32 C13.896875 31.05125 13.79375 30.1025 13.6875 29.125 C13.31460705 25.70892499 13.31460705 25.70892499 10 24 C9.65942383 21.66162109 9.65942383 21.66162109 9.70703125 18.7734375 C9.71669922 17.7421875 9.72636719 16.7109375 9.73632812 15.6484375 C9.76146484 14.56820312 9.78660156 13.48796875 9.8125 12.375 C9.82603516 11.28703125 9.83957031 10.1990625 9.85351562 9.078125 C9.88895246 6.38492591 9.93835669 3.69270626 10 1 C7.03 1 4.06 1 1 1 C1 8.26 1 15.52 1 23 C0.67 23 0.34 23 0 23 C0 15.41 0 7.82 0 0 Z " fill="#616C4F" transform="translate(312,154)"/>
<path d="M0 0 C2.29236186 0.47582968 4.58387209 0.95576385 6.875 1.4375 C8.15117187 1.70433594 9.42734375 1.97117188 10.7421875 2.24609375 C14 3 14 3 16 4 C16 4.66 16 5.32 16 6 C17.299375 6.1546875 17.299375 6.1546875 18.625 6.3125 C22.16683123 7.03398414 24.84312042 8.27123261 28 10 C23.9812193 11.63990547 20.69313446 10.23953892 16.8125 8.875 C16.14919678 8.64852783 15.48589355 8.42205566 14.80249023 8.1887207 C9.54337996 6.33154737 4.71169573 4.00067343 0 1 C0 0.67 0 0.34 0 0 Z " fill="#91F1B0" transform="translate(200,241)"/>
<path d="M0 0 C0.86625 0.2784375 0.86625 0.2784375 1.75 0.5625 C4.20692525 1.04023546 5.64397534 0.75729364 8 0 C8 0.99 8 1.98 8 3 C8.66 3 9.32 3 10 3 C9.67 4.65 9.34 6.3 9 8 C9.804375 8.2475 10.60875 8.495 11.4375 8.75 C14 10 14 10 14.8125 12.125 C14.874375 12.74375 14.93625 13.3625 15 14 C11.62985544 12.50728757 9.12782162 10.56479174 6.375 8.125 C5.59898437 7.44695312 4.82296875 6.76890625 4.0234375 6.0703125 C2.10475403 4.10718076 1.04805247 2.51307205 0 0 Z " fill="#79F29C" transform="translate(182,225)"/>
<path d="M0 0 C1.32 0 2.64 0 4 0 C4.33 3.3 4.66 6.6 5 10 C-0.625 12.125 -0.625 12.125 -4 11 C-4 9.68 -4 8.36 -4 7 C-3.34 6.67 -2.68 6.34 -2 6 C-1.27306096 4.02111039 -0.60183749 2.02045442 0 0 Z " fill="#7C5C59" transform="translate(283,167)"/>
<path d="M0 0 C0.66 0.33 1.32 0.66 2 1 C1.67 1.99 1.34 2.98 1 4 C0.85351918 6.26763574 0.7790374 8.54032366 0.75 10.8125 C0.72421875 12.01519531 0.6984375 13.21789062 0.671875 14.45703125 C1.27515072 20.97097267 4.29170557 24.67345917 9 29 C6.04743516 28.67193724 4.24751113 28.17679366 1.8125 26.4375 C-2.66477667 20.41633482 -2.73534379 12.23448526 -2 5 C-0.984375 2.16796875 -0.984375 2.16796875 0 0 Z " fill="#75D98C" transform="translate(256,160)"/>
<path d="M0 0 C7.75 0.75 7.75 0.75 10 3 C10.17525055 5.79684797 10.23143189 8.4932808 10.1953125 11.2890625 C10.1924826 12.10748627 10.18965271 12.92591003 10.18673706 13.76913452 C10.17552532 16.38790393 10.15041929 19.00633364 10.125 21.625 C10.11497147 23.39843257 10.1058454 25.17187049 10.09765625 26.9453125 C10.07558278 31.29700626 10.04104644 35.6484455 10 40 C9.67 40 9.34 40 9 40 C9 28.12 9 16.24 9 4 C6.69 3.67 4.38 3.34 2 3 C1.34 2.01 0.68 1.02 0 0 Z " fill="#B4A5A2" transform="translate(80,217)"/>
<path d="M0 0 C0.99 0.33 1.98 0.66 3 1 C2.34 1 1.68 1 1 1 C1.33 2.98 1.66 4.96 2 7 C5.46712111 8.15570704 8.5414956 8.32835293 12.1875 8.5625 C14.09595703 8.68818359 14.09595703 8.68818359 16.04296875 8.81640625 C17.01878906 8.87699219 17.99460937 8.93757812 19 9 C17 11 17 11 14.86328125 11.265625 C2.18798151 11.18798151 2.18798151 11.18798151 -1 8 C-1.23529412 2.47058824 -1.23529412 2.47058824 0 0 Z " fill="#647E58" transform="translate(335,192)"/>
<path d="M0 0 C0.928125 0.4640625 0.928125 0.4640625 1.875 0.9375 C6.18802294 2.4039278 10.4759996 2.66619026 15 3 C14.67 4.32 14.34 5.64 14 7 C10.7 7 7.4 7 4 7 C3.67 6.34 3.34 5.68 3 5 C3.33 4.34 3.66 3.68 4 3 C2.68 2.67 1.36 2.34 0 2 C0 1.34 0 0.68 0 0 Z " fill="#7BE191" transform="translate(335,186)"/>
<path d="M0 0 C0.66 0 1.32 0 2 0 C0.60015826 6.06598088 -2.79414445 10.54056896 -7 15 C-11.81818182 18 -11.81818182 18 -15 18 C-15 17.34 -15 16.68 -15 16 C-14.01 16 -13.02 16 -12 16 C-12 15.34 -12 14.68 -12 14 C-11.01 14 -10.02 14 -9 14 C-9 13.34 -9 12.68 -9 12 C-7.68 11.67 -6.36 11.34 -5 11 C-4.87625 10.4225 -4.7525 9.845 -4.625 9.25 C-3.99351176 6.97664233 -3.11141809 5.0746471 -2 3 C-1.34 3 -0.68 3 0 3 C0 2.01 0 1.02 0 0 Z " fill="#9AF0B4" transform="translate(373,269)"/>
<path d="M0 0 C0.66 0 1.32 0 2 0 C2.33 7.59 2.66 15.18 3 23 C2.01 23 1.02 23 0 23 C0 15.41 0 7.82 0 0 Z " fill="#7CDA91" transform="translate(323,154)"/>
<path d="M0 0 C0.804375 0.4640625 0.804375 0.4640625 1.625 0.9375 C5.98310067 2.88717661 9.4590606 3.20201337 14 2 C16.67298188 1.90711646 19.32416634 1.95540277 22 2 C21 4 21 4 18.375 5.125 C13.31359562 6.43721595 9.58959736 6.62984046 4.6875 4.6875 C2 3 2 3 0 0 Z " fill="#677457" transform="translate(260,184)"/>
<path d="M0 0 C0.33 0 0.66 0 1 0 C1 2.97 1 5.94 1 9 C2.65 9 4.3 9 6 9 C6 17.58 6 26.16 6 35 C5.67 35 5.34 35 5 35 C4.67 27.41 4.34 19.82 4 12 C2.68 11.34 1.36 10.68 0 10 C0 6.7 0 3.4 0 0 Z " fill="#84DE97" transform="translate(401,154)"/>
<path d="M0 0 C3.3 0 6.6 0 10 0 C5.94920477 2.70053016 1.69471417 3.60518649 -2.96875 4.90234375 C-5.82822989 5.93779974 -7.13704011 6.66464671 -9 9 C-9 7.35 -9 5.7 -9 4 C-8.43410156 3.87882813 -7.86820312 3.75765625 -7.28515625 3.6328125 C-6.18494141 3.38144531 -6.18494141 3.38144531 -5.0625 3.125 C-4.33160156 2.96257812 -3.60070312 2.80015625 -2.84765625 2.6328125 C-0.79299706 2.17038477 -0.79299706 2.17038477 0 0 Z " fill="#9BF1B5" transform="translate(391,236)"/>
<path d="M0 0 C0.33 0.99 0.66 1.98 1 3 C0.360625 3.825 -0.27875 4.65 -0.9375 5.5 C-4.10845065 9.91080332 -3.51322679 14.8017458 -3 20 C-2.48957089 22.75545206 -1.81173491 25.31112811 -1 28 C-4.19024483 25.08716777 -4.92814638 23.01419618 -5.23828125 18.63671875 C-5.26277344 17.33347656 -5.28726562 16.03023437 -5.3125 14.6875 C-5.34988281 13.39199219 -5.38726562 12.09648437 -5.42578125 10.76171875 C-4.90744645 6.18230212 -3.26223671 3.26223671 0 0 Z " fill="#617351" transform="translate(336,157)"/>
<path d="M0 0 C4.13044596 0.07636119 7.97551404 0.25199488 12.01171875 1.23046875 C12.67171875 1.23046875 13.33171875 1.23046875 14.01171875 1.23046875 C13.68171875 2.55046875 13.35171875 3.87046875 13.01171875 5.23046875 C13.67171875 5.23046875 14.33171875 5.23046875 15.01171875 5.23046875 C15.34171875 6.55046875 15.67171875 7.87046875 16.01171875 9.23046875 C15.35171875 8.90046875 14.69171875 8.57046875 14.01171875 8.23046875 C14.01171875 7.57046875 14.01171875 6.91046875 14.01171875 6.23046875 C10.40066353 4.06018808 6.90378901 3.64240378 2.76171875 3.10546875 C1.4984375 2.93789062 0.23515625 2.7703125 -1.06640625 2.59765625 C-2.030625 2.47648438 -2.99484375 2.3553125 -3.98828125 2.23046875 C-1.98828125 0.23046875 -1.98828125 0.23046875 0 0 Z " fill="#78E092" transform="translate(269.98828125,150.76953125)"/>
<path d="M0 0 C0.33 0.99 0.66 1.98 1 3 C-1 6 -1 6 -4 7 C-4.68132451 8.66072849 -5.34742127 10.327767 -6 12 C-6.99 12.66 -7.98 13.32 -9 14 C-9.33 14.99 -9.66 15.98 -10 17 C-10.66 17 -11.32 17 -12 17 C-9.91435882 10.32594822 -5.07434458 4.68401038 0 0 Z " fill="#95F2B1" transform="translate(188,106)"/>
<path d="M0 0 C2.77982621 1.3899131 2.87463341 3.18658353 4 6 C4.66 6.33 5.32 6.66 6 7 C6.38063221 9.3260857 6.71269945 11.66055264 7 14 C7.33 14.66 7.66 15.32 8 16 C7.34 16.66 6.68 17.32 6 18 C5.17934931 16.12855305 4.3688416 14.25265664 3.5625 12.375 C2.88380859 10.80878906 2.88380859 10.80878906 2.19140625 9.2109375 C1.04198295 6.11314749 0.42688777 3.26789946 0 0 Z " fill="#90F1AD" transform="translate(167,194)"/>
<path d="M0 0 C2 0 2 0 3.5 1.4375 C3.995 1.953125 4.49 2.46875 5 3 C5.66 3.33 6.32 3.66 7 4 C7 5.32 7 6.64 7 8 C4.69 8 2.38 8 0 8 C0 5.36 0 2.72 0 0 Z " fill="#74DF8C" transform="translate(419,146)"/>
<path d="M0 0 C0.33 0 0.66 0 1 0 C1.144375 0.763125 1.28875 1.52625 1.4375 2.3125 C1.9632594 5.08172908 1.9632594 5.08172908 3 8 C3.99 8 4.98 8 6 8 C6.33 5.36 6.66 2.72 7 0 C7.33 0 7.66 0 8 0 C8.28571429 7.42857143 8.28571429 7.42857143 6 11 C1.125 10.125 1.125 10.125 0 9 C-0.07179964 7.48071962 -0.08392007 5.95832518 -0.0625 4.4375 C-0.05347656 3.61121094 -0.04445313 2.78492188 -0.03515625 1.93359375 C-0.02355469 1.29550781 -0.01195312 0.65742188 0 0 Z " fill="#76D58E" transform="translate(268,167)"/>
<path d="M0 0 C1.32 0 2.64 0 4 0 C4 3.3 4 6.6 4 10 C2.68 9.67 1.36 9.34 0 9 C0 6.03 0 3.06 0 0 Z " fill="#67F38E" transform="translate(345,167)"/>
<path d="M0 0 C0.86882812 0.08378906 1.73765625 0.16757813 2.6328125 0.25390625 C3.78523438 0.35574219 4.93765625 0.45757812 6.125 0.5625 C7.83042969 0.71912109 7.83042969 0.71912109 9.5703125 0.87890625 C12.88897993 0.99608016 15.7562686 0.6655072 19 0 C16.00584734 3.13025051 14.74410484 3.95039301 10.25 4.25 C6.21859014 4.22057365 3.47883551 3.08730131 0 1 C0 0.67 0 0.34 0 0 Z " fill="#65805C" transform="translate(296,186)"/>
<path d="M0 0 C2.46968633 2.46968633 3.06997969 4.57488587 4.1875 7.875 C4.55230469 8.92429688 4.91710937 9.97359375 5.29296875 11.0546875 C5.98462433 13.93594885 6.03230681 15.27786612 5 18 C3 16 3 16 2.875 13.375 C2.91625 12.59125 2.9575 11.8075 3 11 C2.34 11 1.68 11 1 11 C0.67 7.37 0.34 3.74 0 0 Z " fill="#9BF1B2" transform="translate(436,121)"/>
<path d="M0 0 C0.99 0 1.98 0 3 0 C2.41632611 6.30367803 0.95928381 11.98660063 -1 18 C-1.33 18 -1.66 18 -2 18 C-2 15.36 -2 12.72 -2 10 C-1.34 10 -0.68 10 0 10 C0 6.7 0 3.4 0 0 Z " fill="#95F2B2" transform="translate(379,246)"/>
<path d="M0 0 C0.33 0 0.66 0 1 0 C1.33 4.29 1.66 8.58 2 13 C2.66 13 3.32 13 4 13 C4 15.31 4 17.62 4 20 C1.7522025 17.94766315 0.9977758 16.99332739 0 14 C-0.06970052 11.60509014 -0.08448003 9.20832309 -0.0625 6.8125 C-0.05347656 5.54019531 -0.04445312 4.26789063 -0.03515625 2.95703125 C-0.02355469 1.98121094 -0.01195312 1.00539062 0 0 Z M2 9 C2.99 9.495 2.99 9.495 4 10 C3.01 10.495 3.01 10.495 2 11 C2 10.34 2 9.68 2 9 Z " fill="#696952" transform="translate(256,164)"/>
<path d="M0 0 C0.66 0.66 1.32 1.32 2 2 C1.45652174 8.08695652 1.45652174 8.08695652 0 11 C-0.04022391 13.3329866 -0.04320247 15.66706666 0 18 C-2.50777727 14.23833409 -2.2934072 12.47445973 -2 8 C-1.44938665 5.28490659 -0.74975688 2.67100888 0 0 Z " fill="#A1908D" transform="translate(372,344)"/>
<path d="M0 0 C0.66 0 1.32 0 2 0 C2 2.64 2 5.28 2 8 C7.32932432 9.70084819 12.43109483 10.52013969 18 11 C18 11.33 18 11.66 18 12 C11.59370576 12.20852314 6.07027358 12.1583195 0 10 C0 6.7 0 3.4 0 0 Z " fill="#78E395" transform="translate(333,192)"/>
<path d="M0 0 C5.80342274 1.48805711 10.17590879 4.59097555 15 8 C14.01 8.495 14.01 8.495 13 9 C10.875 8.0625 10.875 8.0625 9 7 C9 6.34 9 5.68 9 5 C4.545 4.01 4.545 4.01 0 3 C0 2.01 0 1.02 0 0 Z " fill="#98F2B5" transform="translate(401,88)"/>
<path d="M0 0 C1.60568666 0.28317926 3.20952047 0.57687791 4.8125 0.875 C6.15248047 1.11863281 6.15248047 1.11863281 7.51953125 1.3671875 C10 2 10 2 13 4 C11.56359829 4.19573608 10.12580496 4.38127816 8.6875 4.5625 C7.88699219 4.66691406 7.08648437 4.77132812 6.26171875 4.87890625 C4 5 4 5 1 4 C0.3125 1.9375 0.3125 1.9375 0 0 Z " fill="#90F1AC" transform="translate(379,80)"/>
<path d="M0 0 C-5.63284189 4.42580434 -8.88709728 5.23709676 -16 5 C-13.13879225 3.09252817 -10.64745007 1.99646294 -7.4375 0.8125 C-6.46683594 0.44769531 -5.49617187 0.08289063 -4.49609375 -0.29296875 C-2 -1 -2 -1 0 0 Z " fill="#96F1B1" transform="translate(236,81)"/>
<path d="M0 0 C1.43410153 3.78819273 0.51009497 6.06521279 -0.9375 9.75 C-1.31777344 10.73484375 -1.69804687 11.7196875 -2.08984375 12.734375 C-2.39019531 13.48203125 -2.69054687 14.2296875 -3 15 C-3.33 15 -3.66 15 -4 15 C-4.33 12.69 -4.66 10.38 -5 8 C-4.01 7.67 -3.02 7.34 -2 7 C-1.855625 6.030625 -1.71125 5.06125 -1.5625 4.0625 C-1 1 -1 1 0 0 Z " fill="#91F2B0" transform="translate(441,190)"/>
<path d="M0 0 C1.32 0 2.64 0 4 0 C2.59155282 3.21524305 0.89655214 5.32183868 -1.625 7.75 C-2.57246094 8.67039063 -2.57246094 8.67039063 -3.5390625 9.609375 C-4.02117187 10.06828125 -4.50328125 10.5271875 -5 11 C-5.33 9.68 -5.66 8.36 -6 7 C-5.01 7 -4.02 7 -3 7 C-3 6.01 -3 5.02 -3 4 C-2.01 4 -1.02 4 0 4 C0 2.68 0 1.36 0 0 Z " fill="#94F1AF" transform="translate(428,213)"/>
<path d="M0 0 C2.50298434 2.93828597 3.46930939 5.17902761 4 9 C4.99 9 5.98 9 7 9 C7 10.65 7 12.3 7 14 C3.31571807 10.71046256 1.1593496 7.39867511 -1 3 C-0.67 2.01 -0.34 1.02 0 0 Z " fill="#99F0B2" transform="translate(175,211)"/>
<path d="M0 0 C-0.3125 2.375 -0.3125 2.375 -1 5 C-4.22791555 7.1519437 -5.28400809 7.20086443 -9 7 C-3.65789474 0 -3.65789474 0 0 0 Z " fill="#8FF1AD" transform="translate(200,97)"/>
<path d="M0 0 C2.475 0.495 2.475 0.495 5 1 C5 1.66 5 2.32 5 3 C5.804375 3.2475 6.60875 3.495 7.4375 3.75 C10 5 10 5 10.8125 7.125 C10.874375 7.74375 10.93625 8.3625 11 9 C8.03469503 7.64199529 5.70868729 6.07571737 3.25 3.9375 C2.63640625 3.41027344 2.0228125 2.88304687 1.390625 2.33984375 C0.93171875 1.89769531 0.4728125 1.45554688 0 1 C0 0.67 0 0.34 0 0 Z " fill="#9EF2B6" transform="translate(186,230)"/>
<path d="M0 0 C0.639375 0.144375 1.27875 0.28875 1.9375 0.4375 C5.32317087 1.05935792 8.67963804 1.35421024 12.109375 1.62109375 C12.73328125 1.74613281 13.3571875 1.87117187 14 2 C14.33 2.66 14.66 3.32 15 4 C4.27475338 4.56229448 4.27475338 4.56229448 0 1 C0 0.67 0 0.34 0 0 Z " fill="#657754" transform="translate(335,185)"/>
<path d="M0 0 C1.89600369 0.31146472 3.79179587 0.62421717 5.6875 0.9375 C6.74324219 1.11152344 7.79898437 1.28554687 8.88671875 1.46484375 C11.60249604 1.93167121 14.30124235 2.44422616 17 3 C14 5 14 5 11.66015625 4.79296875 C10.80292969 4.59316406 9.94570313 4.39335938 9.0625 4.1875 C8.20785156 3.99542969 7.35320312 3.80335937 6.47265625 3.60546875 C4.31341718 3.07674512 2.15517696 2.54504475 0 2 C0 1.34 0 0.68 0 0 Z " fill="#A0F2B7" transform="translate(362,76)"/>
<path d="M0 0 C-1.62249941 0.83819158 -3.24808497 1.6704116 -4.875 2.5 C-6.23238281 3.19609375 -6.23238281 3.19609375 -7.6171875 3.90625 C-10 5 -10 5 -12 5 C-12.33 4.01 -12.66 3.02 -13 2 C-11.906875 1.690625 -10.81375 1.38125 -9.6875 1.0625 C-2.78181818 -0.92727273 -2.78181818 -0.92727273 0 0 Z " fill="#99F2B4" transform="translate(413,231)"/>
<path d="M0 0 C0.33 0 0.66 0 1 0 C3.61281488 5.87883349 3.18328202 11.70731728 3 18 C2.67 18 2.34 18 2 18 C0.77100654 11.93184478 -0.27560214 6.20104812 0 0 Z " fill="#9CF3B9" transform="translate(164,176)"/>
<path d="M0 0 C1.32 0.33 2.64 0.66 4 1 C3.34 3.97 2.68 6.94 2 10 C1.34 10 0.68 10 0 10 C0 6.7 0 3.4 0 0 Z " fill="#6FE38C" transform="translate(426,154)"/>
<path d="M0 0 C5.66710699 1.31793186 7.66437233 3.48709197 11 8 C10.01 8 9.02 8 8 8 C7.34 6.68 6.68 5.36 6 4 C5.01 4 4.02 4 3 4 C3 3.34 3 2.68 3 2 C2.01 2 1.02 2 0 2 C0 1.34 0 0.68 0 0 Z " fill="#A39492" transform="translate(211,263)"/>
<path d="M0 0 C0.99 0 1.98 0 3 0 C3 2.31 3 4.62 3 7 C2.01 7 1.02 7 0 7 C-0.38133299 5.0085944 -0.71325582 3.00720923 -1 1 C-0.67 0.67 -0.34 0.34 0 0 Z " fill="#63F58A" transform="translate(271,168)"/>
<path d="M0 0 C0.66 0.66 1.32 1.32 2 2 C-0.64 4.31 -3.28 6.62 -6 9 C-6.33 8.01 -6.66 7.02 -7 6 C-6.34 6 -5.68 6 -5 6 C-5 5.34 -5 4.68 -5 4 C-3.35 3.34 -1.7 2.68 0 2 C0 1.34 0 0.68 0 0 Z " fill="#A49391" transform="translate(342,360)"/>
<path d="M0 0 C0.99 0.33 1.98 0.66 3 1 C1.1875 4 1.1875 4 -1 7 C-1.99 7 -2.98 7 -4 7 C-2.92598892 4.08482708 -2.22189824 2.22189824 0 0 Z " fill="#9E8F8D" transform="translate(379,333)"/>
<path d="M0 0 C0 0.66 0 1.32 0 2 C0.66 2 1.32 2 2 2 C2 2.99 2 3.98 2 5 C-1.45925163 3.7508258 -4.14693203 2.32472205 -7 0 C-2.25 -1.125 -2.25 -1.125 0 0 Z " fill="#9A8885" transform="translate(410,331)"/>
<path d="M0 0 C0.33 0 0.66 0 1 0 C1.20086443 3.71599191 1.1519437 4.77208445 -1 8 C-1.70164642 9.98799818 -2.37372872 11.98698517 -3 14 C-4.37095624 10.30962722 -3.60010967 8.29116165 -2.0625 4.75 C-1.68222656 3.85796875 -1.30195313 2.9659375 -0.91015625 2.046875 C-0.60980469 1.37140625 -0.30945313 0.6959375 0 0 Z " fill="#9E8C89" transform="translate(140,316)"/>
<path d="M0 0 C1.98 0 3.96 0 6 0 C8.09350689 3.4019487 8.17942163 6.05272412 8 10 C7.731875 9.4225 7.46375 8.845 7.1875 8.25 C5.2397957 4.5596129 3.49833779 2.33222519 0 0 Z " fill="#78D68C" transform="translate(390,153)"/>
<path d="M0 0 C0.33 0 0.66 0 1 0 C1 1.98 1 3.96 1 6 C0.01 6.495 0.01 6.495 -1 7 C-2.13350534 9.01669827 -2.13350534 9.01669827 -3 11 C-4 8 -4 8 -3.22265625 5.95703125 C-2.83980469 5.24933594 -2.45695313 4.54164062 -2.0625 3.8125 C-1.68222656 3.09707031 -1.30195313 2.38164063 -0.91015625 1.64453125 C-0.60980469 1.10183594 -0.30945313 0.55914062 0 0 Z " fill="#92F3B0" transform="translate(175,123)"/>
<path d="M0 0 C2 1 2 1 2.75 3.125 C3.0678148 6.77987025 2.15126966 9.54619101 1 13 C0.34 12.67 -0.32 12.34 -1 12 C-1 11.01 -1 10.02 -1 9 C-0.34 9 0.32 9 1 9 C0.67 6.03 0.34 3.06 0 0 Z " fill="#9F8E8C" transform="translate(455,268)"/>
<path d="M0 0 C3.48331435 3.01887244 4.79157144 5.56909529 6 10 C5.01 9.67 4.02 9.34 3 9 C0 2.88888889 0 2.88888889 0 0 Z " fill="#9DF3B7" transform="translate(430,111)"/>
<path d="M0 0 C-1.09445838 0.86657116 -2.20097781 1.71792724 -3.3125 2.5625 C-3.92738281 3.03816406 -4.54226563 3.51382813 -5.17578125 4.00390625 C-5.77777344 4.33261719 -6.37976563 4.66132813 -7 5 C-7.99 4.67 -8.98 4.34 -10 4 C-8.68 3.67 -7.36 3.34 -6 3 C-6 2.01 -6 1.02 -6 0 C-3.50907189 -1.24546405 -2.58919267 -0.7767578 0 0 Z " fill="#9CF2B6" transform="translate(422,225)"/>
<path d="M0 0 C0.99 0 1.98 0 3 0 C2.50168276 3.68754757 1.89932357 5.60490662 -1 8 C-0.67 5.36 -0.34 2.72 0 0 Z " fill="#676B51" transform="translate(284,177)"/>
<path d="M0 0 C0.33 0 0.66 0 1 0 C1.99 3.3 2.98 6.6 4 10 C2.68 10.33 1.36 10.66 0 11 C0 7.37 0 3.74 0 0 Z " fill="#6A6952" transform="translate(342,169)"/>
<path d="M0 0 C1.093125 0.185625 2.18625 0.37125 3.3125 0.5625 C6.93624133 1.2578068 6.93624133 1.2578068 10 0 C9.34 1.32 8.68 2.64 8 4 C5.125 3.6875 5.125 3.6875 2 3 C1.34 2.01 0.68 1.02 0 0 Z " fill="#617A52" transform="translate(316,186)"/>
<path d="M0 0 C0.33 0.66 0.66 1.32 1 2 C1.66 2 2.32 2 3 2 C1.25 5.875 1.25 5.875 -1 7 C-1.625 4.625 -1.625 4.625 -2 2 C-1.34 1.34 -0.68 0.68 0 0 Z " fill="#72E990" transform="translate(333,154)"/>
<path d="M0 0 C2.64 0.33 5.28 0.66 8 1 C8.33 1.99 8.66 2.98 9 4 C5.625 3.6875 5.625 3.6875 2 3 C1.34 2.01 0.68 1.02 0 0 Z " fill="#9D8C8B" transform="translate(80,217)"/>
<path d="M0 0 C0.66 1.32 1.32 2.64 2 4 C0.02 6.97 0.02 6.97 -2 10 C-2.33 8.68 -2.66 7.36 -3 6 C-2.01 5.67 -1.02 5.34 0 5 C0 3.35 0 1.7 0 0 Z " fill="#9DF3B5" transform="translate(435,203)"/>
<path d="M0 0 C0.66 0.33 1.32 0.66 2 1 C0.8125 3 0.8125 3 -1 5 C-3.6875 5.25 -3.6875 5.25 -6 5 C-2.25 1.125 -2.25 1.125 0 0 Z " fill="#9D8E8B" transform="translate(152,305)"/>
<path d="M0 0 C-0.66 1.32 -1.32 2.64 -2 4 C-3.65 3.67 -5.3 3.34 -7 3 C-3.375 0 -3.375 0 0 0 Z " fill="#9A8584" transform="translate(160,263)"/>
<path d="M0 0 C0.33 0 0.66 0 1 0 C1.125 6.75 1.125 6.75 0 9 C-0.66 9 -1.32 9 -2 9 C-1.51421457 5.87709365 -1.0013988 3.00419641 0 0 Z " fill="#97F1AD" transform="translate(170,133)"/>
</svg>
